{"title":"Resident Evil Retribution 1080p BD-Rip Dual Audio [Hindi-Eng]~Ab","uid":7974253,"size":2345917800,"categoryP":"video","categoryS":"hd___movies","magnet":"?xt=urn:btih:d3148581b76c44631b8c541849a59771bb64a69e&amp;dn=Resident+Evil+Retribution+1080p+BD-Rip+Dual+Audio+%5BHindi-Eng%5D%7EAb&amp;tr=udp%3A%2F%2Ftracker.openbittorrent.com%3A80&amp;tr=udp%3A%2F%2Fopen.demonii.com%3A1337&amp;tr=udp%3A%2F%2Ftracker.coppersurfer.tk%3A6969&amp;tr=udp%3A%2F%2Fexodus.desync.com%3A6969","seeders":0,"leechers":1,"uploader":"Abhinav4u","files":4,"time":1356945001,"description":"Group:- HKRG\nUploader:-Abhinav4u\n\nComplete name                    : Resident Evil Retribution 1080p BD-Rip Dual Audio [Hindi-Eng]~Abhinav4u~ {HKRG}.mkv\nFormat                           : Matroska\nFile size                        : 2.18 GiB\nDuration                         : 1h 35mn\nOverall bit rate                 : 3 271 Kbps\nMovie name                       : Resident Evil Retribution 1080p BD-Rip Dual Audio [Hindi-Eng]~Abhinav4u~ {HKRG}\n\nVideo Info:-\nFormat/Info                      : Advanced Video Codec\nFormat profile                   : &lt;a class=&quot;__cf_email__&quot; href=&quot;/cdn-cgi/l/email-protection&quot; data-cfemail=&quot;337b5a545b737f071d02&quot;&gt;[email&amp;#160;protected]&lt;/a&gt;&lt;script cf-hash='f9e31' type=&quot;text/javascript&quot;&gt;\n/* &lt;![CDATA[ */!function(){try{var t=&quot;currentScript&quot;in document?document.currentScript:function(){for(var t=document.getElementsByTagName(&quot;script&quot;),e=t.length;e--;)if(t[e].getAttribute(&quot;cf-hash&quot;))return t[e]}();if(t&amp;&amp;t.previousSibling){var e,r,n,i,c=t.previousSibling,a=c.getAttribute(&quot;data-cfemail&quot;);if(a){for(e=&quot;&quot;,r=parseInt(a.substr(0,2),16),n=2;a.length-n;n+=2)i=parseInt(a.substr(n,2),16)^r,e+=String.fromCharCode(i);e=document.createTextNode(e),c.parentNode.replaceChild(e,c)}}}catch(u){}}();/* ]]&gt; */&lt;/script&gt;\nWidth                            : 1 920 pixels\nHeight                           : 800 pixels\nFrame rate                       : 23.976 fps\nStream size                      : 1.74 GiB\n\nAudio #1:-\nFormat/Info                      : Advanced Audio Codec\nBit rate mode                    : Variable\nBit rate                         : 438 Kbps\nMaximum bit rate                 : 499 Kbps\nChannel(s)                       : 6 channels\nChannel positions                : Front: L C R, Side: L R, LFE\nStream size                      : 299 MiB \nLanguage                         : English\n\nAudio #2:-\nFormat                           : AC-3\nBit rate                         : 224 Kbps\nChannel(s)                       : 2 channels\nStream size                      : 153 MiB (7%)\nTitle                            : ~Abhinav4u~ {HKRG}\nLanguage                         : Hindi\n\n\n\nHindi Audio Credit:-Prisak(Thanks)\nEnjoy the Movie..","torrent":{"xt":"urn:btih:d3148581b76c44631b8c541849a59771bb64a69e","amp;dn":"Resident+Evil+Retribution+1080p+BD-Rip+Dual+Audio+%5BHindi-Eng%5D%7EAb","amp;tr":["udp%3A%2F%2Ftracker.openbittorrent.com%3A80","udp%3A%2F%2Fopen.demonii.com%3A1337","udp%3A%2F%2Ftracker.coppersurfer.tk%3A6969","udp%3A%2F%2Fexodus.desync.com%3A6969"],"infoHash":"d3148581b76c44631b8c541849a59771bb64a69e","infoHashBuffer":{"type":"Buffer","data":[211,20,133,129,183,108,68,99,27,140,84,24,73,165,151,113,187,100,166,158]},"announce":[],"urlList":[]}}